<svg width="346" height="179" viewBox="0 0 346 179" fill="none" xmlns="http://www.w3.org/2000/svg">
<g id="First">
<g id="Header">
<g id="FormLogo">
<path id="Path 3" fill-rule="evenodd" clip-rule="evenodd" d="M44 161L51.7563 138H149L142.735 161H46.1722H61.9276H73.8009" fill="#F4C430"/>
<path id="Path 4" fill-rule="evenodd" clip-rule="evenodd" d="M52 138L142.75 161L149 138H52.6378" fill="#C8A128"/>
<path id="Path 5" fill-rule="evenodd" clip-rule="evenodd" d="M44 161L74 179L68.4333 161H44Z" fill="#C8A128"/>
<path id="Path 2" fill-rule="evenodd" clip-rule="evenodd" d="M0 32.2627L32.6105 137.415L304.665 141L346 0L0 32.2627Z" fill="#F4C430"/>
</g>
<path id="D" d="M50.8711 33.4492V118H84.1523C109.465 118 123.82 102.531 123.82 75.168C123.82 48.625 109.289 33.4492 84.1523 33.4492H50.8711ZM68.5664 48.0391H81.3398C96.6914 48.0391 105.773 58 105.773 75.4609C105.773 93.5664 96.9844 103.41 81.3398 103.41H68.5664V48.0391Z" fill="white"/>
<path id="ezcont&#195;&#163;o" d="M140.98 67.9258C140.375 69.3906 138.832 70.2109 136.586 70.2109C133.617 70.2109 131.742 68.1602 131.664 64.8789V64.5859H146.449V62.8867C146.449 56.0898 142.699 52.0273 136.352 52.0273C129.945 52.0273 126 56.3633 126 63.3555C126 70.3086 129.867 74.4492 136.43 74.4492C141.703 74.4492 145.434 71.9297 146.273 67.9258H140.98ZM136.371 56.2656C139.027 56.2656 140.746 58.1016 140.863 61.0508H131.684C131.879 58.1602 133.734 56.2656 136.371 56.2656ZM151.347 74H169.296V69.625H158.768V69.2734L169.042 56.1289V52.4961H151.503V56.8711H162.245V57.2227L151.347 70.7188V74ZM193.763 59.9961C193.295 55.1914 189.877 52.0273 184.174 52.0273C177.435 52.0273 173.646 56.1094 173.646 63.1992C173.646 70.3672 177.455 74.4492 184.174 74.4492C189.779 74.4492 193.295 71.3633 193.763 66.6367H188.451C188.021 68.7852 186.498 69.9375 184.174 69.9375C181.127 69.9375 179.388 67.5352 179.388 63.1992C179.388 58.9219 181.107 56.5586 184.174 56.5586C186.595 56.5586 188.06 57.9258 188.451 59.9961H193.763ZM208.485 74.4492C215.106 74.4492 219.09 70.2695 219.09 63.2383C219.09 56.2656 215.047 52.0273 208.485 52.0273C201.922 52.0273 197.879 56.2852 197.879 63.2383C197.879 70.25 201.864 74.4492 208.485 74.4492ZM208.485 69.957C205.438 69.957 203.719 67.4961 203.719 63.2383C203.719 59.0195 205.458 56.5391 208.485 56.5391C211.493 56.5391 213.251 59.0195 213.251 63.2383C213.251 67.4961 211.512 69.957 208.485 69.957ZM224.456 74H230.14V61.5586C230.14 58.6484 231.761 56.7734 234.398 56.7734C237.093 56.7734 238.363 58.3555 238.363 61.3828V74H244.046V60.0938C244.046 54.957 241.468 52.0273 236.683 52.0273C233.499 52.0273 231.312 53.5312 230.316 55.9531H229.964V52.4961H224.456V74ZM251.912 47.3594V52.6914H248.553V57.0078H251.912V68.1992C251.912 72.3789 253.983 74.0781 259.217 74.0781C260.311 74.0781 261.366 73.9609 262.069 73.8242V69.625C261.522 69.6836 261.131 69.7227 260.389 69.7227C258.455 69.7227 257.596 68.8242 257.596 66.8906V57.0078H262.069V52.6914H257.596V47.3594H251.912ZM279.505 49.5664C282.396 49.5664 284.368 47.2422 284.368 43.3945H280.833C280.833 45.1328 280.384 46.168 279.329 46.168C277.571 46.168 277.005 43.3164 273.861 43.3164C271.009 43.3164 269.056 45.6016 269.056 49.4883H272.591C272.591 47.7695 273.06 46.8516 274.095 46.8516C275.736 46.8516 276.341 49.5664 279.505 49.5664ZM273.431 74.332C276.224 74.332 278.568 73.1406 279.681 71.1484H280.032V74H285.54V59.3125C285.54 54.7227 282.318 52.0273 276.614 52.0273C271.204 52.0273 267.552 54.5078 267.181 58.4531H272.415C272.884 57.1055 274.251 56.3828 276.302 56.3828C278.646 56.3828 279.935 57.457 279.935 59.3125V61.0898L274.72 61.4023C269.368 61.7148 266.38 63.9805 266.38 67.8672C266.38 71.793 269.29 74.332 273.431 74.332ZM275.306 70.1719C273.333 70.1719 271.946 69.1758 271.946 67.5156C271.946 65.9336 273.138 65.0156 275.579 64.8594L279.935 64.5664V66.168C279.935 68.4336 277.943 70.1719 275.306 70.1719ZM301.395 74.4492C308.016 74.4492 312 70.2695 312 63.2383C312 56.2656 307.957 52.0273 301.395 52.0273C294.832 52.0273 290.789 56.2852 290.789 63.2383C290.789 70.25 294.773 74.4492 301.395 74.4492ZM301.395 69.957C298.348 69.957 296.629 67.4961 296.629 63.2383C296.629 59.0195 298.367 56.5391 301.395 56.5391C304.402 56.5391 306.16 59.0195 306.16 63.2383C306.16 67.4961 304.422 69.957 301.395 69.957Z" fill="white"/>
<path id="10" d="M120.017 127.92C120.017 129.92 120.577 131.2 121.377 132.16C122.417 133.28 123.857 132.8 124.337 131.68C128.657 121.52 134.897 110 143.777 93.6C145.377 90.64 146.177 88.24 146.177 86.4C146.177 84.8 145.457 83.52 144.097 82.32C142.977 81.2 141.937 81.44 140.497 82.72C138.177 85.28 135.697 87.6 133.377 89.92C132.417 90.8 131.697 92.32 135.617 92.4C129.697 103.2 122.337 118.24 120.817 122.96C120.177 124.96 120.017 126.64 120.017 127.92ZM164.474 81.76C156.074 85.76 142.554 100.8 142.554 116.64C142.554 122.88 146.474 128.24 151.274 130.24C153.354 131.12 154.794 131.2 156.314 131.2C165.114 131.2 172.874 122.64 177.754 112.64C180.394 107.36 182.154 100.72 182.154 95.28C182.154 89.76 179.434 84.96 175.594 82.72C173.754 81.04 171.994 80.8 169.514 80.8C167.994 80.8 166.074 81.12 164.474 81.76ZM152.634 126.88C150.714 126 149.434 122.96 149.434 118.72C149.434 113.76 151.114 107.44 154.634 101.28C161.194 90.16 169.754 84.32 173.034 85.52C174.634 86 175.594 88.72 175.594 92.64C175.594 97.28 174.074 103.6 170.794 110.48C165.354 121.76 157.114 128.08 152.634 126.88ZM188.567 129.44C189.207 131.28 190.327 131.12 191.367 129.68C196.807 122 207.687 109.28 219.447 95.6C222.167 92.4 223.927 89.04 223.607 86.32C223.287 84.32 222.327 83.92 220.007 86.4C218.407 88.16 216.007 89.04 213.447 89.04C210.567 89.04 207.287 87.52 205.447 85.04C204.087 83.2 202.807 82.4 200.647 82.56C196.407 82.64 192.247 86.08 189.687 90.4C187.927 93.52 186.807 96.64 186.807 99.6C186.807 101.44 187.367 103.12 188.487 104.72C191.047 108.56 194.407 108.72 197.047 108C203.607 106.24 208.407 93.92 208.407 91.76C210.007 92.56 211.927 93.04 213.767 93.12C205.047 102.96 194.007 116.32 190.407 122C188.407 125.28 187.927 127.76 188.567 129.44ZM199.607 98.32C197.447 102.24 194.887 104.24 193.527 104.24C192.967 104.24 192.567 103.92 192.567 102.08C192.567 99.68 193.527 96.32 195.127 93.6C197.687 89.52 201.447 86 202.647 87.2C203.607 88.24 202.407 93.36 199.607 98.32ZM224.167 114.96C224.167 111.84 223.047 110.16 222.167 109.04C221.847 108.72 220.967 107.68 221.047 107.76C219.687 106.08 218.327 105.52 216.167 105.68C212.167 105.92 208.167 109.6 205.607 113.92C203.927 116.88 202.967 119.92 202.967 122.8C202.967 124.64 203.447 126.64 204.647 128.24C206.327 130.48 208.727 131.52 210.967 131.52C211.927 131.52 212.647 131.44 213.367 131.2C218.887 129.52 224.167 120.64 224.167 114.96ZM215.607 121.44C213.367 125.44 211.047 127.52 209.607 127.52C209.047 127.52 208.567 127.04 208.567 125.2C208.567 123.04 209.607 119.6 211.127 116.88C213.527 112.8 217.207 109.28 218.247 110.32C219.207 111.28 218.327 116.32 215.607 121.44Z" fill="white"/>
</g>
</g>
</svg>
